# xmcd CD database file
#
# Track frame offsets:
#	150
#	18463
#	32045
#	50030
#	61600
#	74960
#	93025
#	108785
#	124440
#	138645
#	150108
#	165170
#	176655
#	192493
#	201310
#	213910
#	232758
#	246525
#	257048
#
# Disc length: 3606 seconds
#
# Revision: 2
# Processed by: cddbd v1.4PL0 Copyright (c) Steve Scherf et al.
# Submitted via: CDex 1.40Beta9
#
DISCID=0b0e1413
DTITLE=UÑA RAMOS - LE CHANT DU MONDE LDX 274842
DYEAR=1900
DGENRE=Blues
TTITLE0=KENA POP
TTITLE1=UN CHEMIN DE LAMAS
TTITLE2=LE PONT DE BOIS
TTITLE3=NOTES DE FEU
TTITLE4=NOSTALGIES
TTITLE5=HONO
TTITLE6=PETITE BOÎTE A MUSIQUE
TTITLE7=LA VALLÉE DES COQUELICOTS
TTITLE8=LE CHÂTEAU ENDORMI
TTITLE9=COULEUR D'AUTOMNE
TTITLE10=MERCEDES
TTITLE11=EL GRINGO
TTITLE12=REFLETS DE SOLEIL
TTITLE13=PONCHO GRIS
TTITLE14=PETIT FLOCON DE NEIGE
TTITLE15=UNE FLÛTE DANS LA NUIT
TTITLE16=LE VENT DU NORD
TTITLE17=DANSE DU POINT DU JOUR
TTITLE18=PANCHO KARANCHO
EXTD=Hans Heintze an der Großen Silbermann-Orgel ID3G: 0
EXTT0=TUMBAS
EXTT1=TUMBAS
EXTT2=BOLA 8
EXTT3=A.M.C
EXTT4=TUMBAS
EXTT5=SUPER - A
EXTT6=SINDICATO ARGENTINO DEL HIP HOP
EXTT7=ENCONTRA DEL HOMBRE
EXTT8=ENCONTRA DEL HOMBRE
EXTT9=BOLA 8
EXTT10=a) A Message from Mars b) Martian Battle - Avante Popolo
EXTT11=Scott Joplin
EXTT12=Fred Astaire
EXTT13=Al Jolson
EXTT14=Ginger Rogers
EXTT15=Fred Astaire and Judy Garland
EXTT16=Marilyn Monroe
EXTT17=Frank Sinatra
EXTT18=Glenn Miller
PLAYORDER=
